<svg width="1280" height="640" viewBox="0 0 1280 640" fill="none" xmlns="http://www.w3.org/2000/svg">
  <rect width="1280" height="640" fill="#F6F0E8"/>
  <path d="M64 84C64 61.9 81.9 44 104 44H1176C1198.1 44 1216 61.9 1216 84V556C1216 578.1 1198.1 596 1176 596H104C81.9 596 64 578.1 64 556V84Z" fill="#111827"/>
  <path d="M111 88C148 71 204 61 263 65C323 69 378 89 413 118C448 147 462 184 448 214C434 244 393 267 339 273C285 279 219 268 168 246C116 224 82 193 77 158C73 126 88 99 111 88Z" fill="#F59E0B" fill-opacity="0.95"/>
  <path d="M885 128C934 92 1006 83 1069 101C1132 119 1181 162 1201 218C1222 275 1213 342 1171 388C1130 434 1057 458 989 449C922 440 860 398 833 334C807 271 835 174 885 128Z" fill="#1F2937" stroke="#FCD34D" stroke-width="4"/>
  <path d="M930 375C965 347 1016 337 1062 346C1107 355 1148 382 1163 419C1177 456 1166 504 1133 536C1099 567 1046 580 997 571C948 561 904 529 890 486C876 443 894 403 930 375Z" fill="#10B981" fill-opacity="0.92"/>
  <path d="M782 470C830 438 903 431 973 445C1044 460 1109 496 1151 548" stroke="#F9FAFB" stroke-width="10" stroke-linecap="round"/>
  <path d="M852 164C874 128 906 100 947 82C988 64 1039 58 1086 67" stroke="#F9FAFB" stroke-width="10" stroke-linecap="round"/>
  <text x="108" y="113" fill="#111827" font-family="Georgia, serif" font-size="24" font-weight="700">OpenClaw Skill</text>
  <text x="86" y="228" fill="#F9FAFB" font-family="Georgia, serif" font-size="72" font-weight="700">GitHub Publish</text>
  <text x="86" y="304" fill="#FCD34D" font-family="Georgia, serif" font-size="72" font-weight="700">Skill</text>
  <text x="86" y="368" fill="#FDE68A" font-family="Arial, sans-serif" font-size="30">Publish OpenClaw skills as polished public GitHub skill repositories.</text>
  <text x="86" y="425" fill="#F3F4F6" font-family="Arial, sans-serif" font-size="26">This repo style is for skill repositories only, not arbitrary codebases.</text>
</svg>
